<svg id="Capa_1" enable-background="new 0 0 511.992 511.992" height="512" viewBox="0 0 511.992 511.992" width="512" xmlns="http://www.w3.org/2000/svg"><g><path d="m433.208 119.321c.001 0 .001 0 0 0 7.299-.945 12.803-7.207 12.803-14.566v-44.437c0-7.36-5.504-13.622-12.803-14.566l-21.424-2.771v-12.329c.001-16.902-13.749-30.652-30.651-30.652h-225.999c-4.143 0-7.5 3.358-7.5 7.5s3.357 7.5 7.5 7.5h225.999c8.63 0 15.651 7.021 15.651 15.652v355.026h-293.734c-8.262 0-15.899 2.719-22.069 7.306v-362.332c0-8.631 7.021-15.652 15.651-15.652h28.515c4.143 0 7.5-3.358 7.5-7.5s-3.357-7.5-7.5-7.5h-28.515c-16.901 0-30.651 13.75-30.651 30.652v424.278c0 20.44 16.629 37.07 37.069 37.07h122.98v7.033c0 4.092 1.964 7.988 5.253 10.421 3.252 2.406 7.549 3.185 11.5 1.975l19.028-5.819 19.029 5.819c3.911 1.196 8.209.459 11.5-1.975 3.289-2.433 5.253-6.329 5.253-10.421v-7.033h22.641c4.143 0 7.5-3.357 7.5-7.5s-3.357-7.5-7.5-7.5h-22.641v-16.212h61.396c4.143 0 7.5-3.357 7.5-7.5s-3.357-7.5-7.5-7.5h-240.214c-4.143 0-7.5 3.357-7.5 7.5s3.357 7.5 7.5 7.5h107.256v16.212h-122.981c-12.169 0-22.069-9.9-22.069-22.07v-32.182c0-12.17 9.9-22.07 22.069-22.07h293.734v60.67c0 8.631-7.021 15.652-15.651 15.652h-30.911c-4.143 0-7.5 3.357-7.5 7.5s3.357 7.5 7.5 7.5h30.911c16.901 0 30.651-13.751 30.651-30.652v-138.862l21.424-2.771c.001-.001.001-.001.001-.001 7.298-.944 12.802-7.206 12.802-14.565v-44.437c0-7.36-5.504-13.622-12.803-14.565l-21.424-2.772v-21.085l21.424-2.772c7.299-.944 12.803-7.206 12.803-14.565v-44.437c0-7.36-5.504-13.622-12.803-14.566l-21.424-2.772v-21.085zm-150.614 341.468v35.491l-16.991-5.196c-2.481-.761-5.102-.759-7.581 0l-16.991 5.196v-35.491zm148.417-400.196v43.887l-19.227 2.487v-48.861zm0 200.394v43.887l-19.227 2.487v-48.861zm0-100.197v43.886l-19.227 2.488v-48.862z"/><path d="m300.558 98.969c0-4.142-3.357-7.5-7.5-7.5h-108.35c-4.143 0-7.5 3.358-7.5 7.5s3.357 7.5 7.5 7.5h108.35c4.143 0 7.5-3.358 7.5-7.5z"/><path d="m192.253 203.17c0 4.142 3.357 7.5 7.5 7.5h78.259c4.143 0 7.5-3.358 7.5-7.5s-3.357-7.5-7.5-7.5h-78.259c-4.142 0-7.5 3.358-7.5 7.5z"/><path d="m163.87 247.885c0 4.142 3.357 7.5 7.5 7.5h135.026c4.143 0 7.5-3.358 7.5-7.5s-3.357-7.5-7.5-7.5h-135.026c-4.143 0-7.5 3.358-7.5 7.5z"/><path d="m118.775 416.89c-4.143 0-7.5 3.357-7.5 7.5s3.357 7.5 7.5 7.5h240.216c4.143 0 7.5-3.357 7.5-7.5s-3.357-7.5-7.5-7.5z"/><path d="m355.444 136.625v-75.312c0-5.887-4.79-10.677-10.677-10.677h-211.768c-5.887 0-10.677 4.79-10.677 10.677v75.312c0 5.887 4.79 10.677 10.677 10.677h130.02c4.143 0 7.5-3.358 7.5-7.5s-3.357-7.5-7.5-7.5h-125.697v-66.665h203.122v66.665h-47.438c-4.143 0-7.5 3.358-7.5 7.5s3.357 7.5 7.5 7.5h51.762c5.886 0 10.676-4.79 10.676-10.677z"/></g></svg>